<svg xmlns="http://www.w3.org/2000/svg" version="1.1" xmlns:xlink="http://www.w3.org/1999/xlink" xmlns:svgjs="http://svgjs.dev/svgjs" width="1000" height="1000" viewBox="0 0 1000 1000"><rect width="1000" height="1000" fill="#000000"></rect><g transform="matrix(0.7,0,0,0.7,150.0000000000001,106.25)"><svg viewBox="0 0 320 360" data-background-color="#ffffff" preserveAspectRatio="xMidYMid meet" height="1125" width="1000" xmlns="http://www.w3.org/2000/svg" xmlns:xlink="http://www.w3.org/1999/xlink"><g id="tight-bounds" transform="matrix(1,0,0,1,0,0)"><svg viewBox="0 0 320 360" height="360" width="320"><g><svg></svg></g><g><svg viewBox="0 0 320 360" height="360" width="320"><g><path xmlns="http://www.w3.org/2000/svg" d="M20.961 227.22l3.726 4.658-1.863-6.056c-0.466-2.795-3.726 0.466-1.863 1.398M25.153 224.425c1.397 2.329 2.795 4.658 2.795 6.987 0 3.261 2.795 4.658 5.123 5.589-3.261-3.726-5.124-13.974-7.918-12.576M204.017 26.929c7.918 0 15.371-0.932 23.756 0.931 20.495 5.124 37.729 15.371 49.374 29.811l32.606 52.169c1.397 13.042 4.192 27.482 3.726 43.319 3.261 0 2.795-4.658 6.521-5.59-3.726 9.316-5.59 20.961-6.521 34.469-2.329-7.453 0-18.632 0.466-24.687-3.261 5.124-5.124 1.397-5.124-0.932 0.466-3.726-1.397-3.261-2.795-4.658-5.124-4.658-8.384-9.782-12.11-17.7 2.329-6.055 2.795-14.905-4.658-19.563-2.329-1.397-5.124-3.726-6.521-7.453-1.863-5.124-5.124-11.179-4.193-19.097 0.466-2.329-6.987 5.124-11.179 1.863-18.166-12.576-36.332-27.016-58.224-39.127-11.645 0-20.029-4.192-24.221-9.316-3.726-4.658-0.932-10.713 4.658-11.179 3.261 0 6.987-0.932 9.782 0.932 0.466-1.863 2.329-4.192 4.657-4.192M157.904 16.215l0.932 0.466c4.658 0.932 6.987 7.453 12.11 5.124 0 3.261 0.466 6.521-0.466 8.85-1.397 3.726-5.59 3.726-8.85 3.726-31.208-1.863-49.374 11.179-68.471 22.358-5.124 3.261-10.713 5.59-14.906 9.782-20.029 18.632-41.921 35.866-47.045 70.335l-4.192 38.195c-0.466 4.192-5.124 8.384-4.192 13.508l3.26 22.824c-3.261-3.261-5.124 0.932-4.192 2.795 0.466 1.397 2.329 6.055 5.124 1.863 3.726 6.987 7.453 20.495 12.576 26.55 15.837 18.632 36.332 35.4 53.101 52.169 4.192-0.932 7.453-0.932 8.384-3.727 1.397 2.795-1.397 5.59-3.726 6.056 7.453 4.658 15.837 8.85 27.016 9.781 14.44 0.932 27.948 3.261 40.524 6.522 6.521-1.863 13.042-2.795 20.029-3.261 2.329 0 3.726-3.726 6.521-4.658l0.466-4.658c2.795 4.192 2.329-1.397 0.466-4.192 3.261 2.795 4.192 5.124 5.589 6.987 0-1.397 3.726-6.521 3.727-0.466l0.931-6.055c1.397-0.932 1.863 5.124 3.261 0.931 1.397-4.192 4.192-0.932 6.987-2.329-0.932 1.863-0.466 5.59 2.794 3.261l3.727-3.261c2.329 5.59 6.055 3.261 7.918 2.329 20.495-13.042 40.99-28.413 60.553-43.784l-0.466 6.055 2.329-7.453c2.329 2.329 4.192 0.466 5.124-0.931 2.795-4.658 6.521-9.316 12.577-13.508-7.453 20.029-16.303 35.866-27.482 48.908l-4.658 5.59c0 3.261-0.932 7.453-4.658 7.918-1.863 0.466-5.59-0.932-8.384 1.863-1.397 1.863 3.261 5.59-0.466 2.795-3.261-2.329-6.521 0-10.248 0.932-2.795 0.932 1.863 3.726 2.795 5.589 0.932 1.863 1.863 3.726 1.398 6.056l-5.124-5.59c-6.055 3.261-9.782 9.316-14.906 13.974-2.329 1.863-1.397 5.124-1.397 7.918-3.261 0-6.987-0.932-8.85 0.932-1.397 1.863-0.932 4.658-0.932 7.453-4.658-0.466-5.124-7.453-9.315-6.056-4.192 0.932-8.85 1.397-12.577 3.727 2.795 5.59-4.658 2.329-3.726 3.26-6.987-4.192-13.042-7.453-20.495-4.658-15.837-5.124-35.4-2.795-49.84-0.931 0-2.329 0.466-4.658-0.466-5.124-0.932 2.329-3.726 1.397-3.26 1.397-8.85-6.055-17.7-9.782-27.016-14.905-8.384 0.932-16.303-3.261-18.632-5.59-6.521-6.055-13.974-2.795-20.029-4.192-13.042-3.261-17.7-16.769-19.098-26.084-0.932-4.658-4.658-6.521-6.055-6.056-6.055-19.563-15.371-37.263-22.824-55.429-1.863-4.658-1.397-9.316-1.397-14.44 2.329 0.932 4.658 0.466 4.192-2.794-2.329-15.371-7.918-27.016-13.974-38.195 3.261-15.837 3.726-34.469 11.179-48.443 6.521-12.576 18.632-19.098 27.016-29.811 2.795-3.726 2.795-8.85 5.59-12.11 9.316-9.316 18.632-19.098 28.879-27.482 4.658-3.726 10.247 0 17.234-1.397 2.329-8.384 11.645-15.837 20.495-13.508 3.726 0.932 11.179-8.85 13.508-9.782 3.726-1.397 1.863 3.726 1.863 6.987 8.85-6.987 20.961-10.713 32.14-14.906" fill="#ffffff" fill-rule="nonzero" stroke="none" stroke-width="1" stroke-linecap="butt" stroke-linejoin="miter" stroke-miterlimit="10" stroke-dasharray="" stroke-dashoffset="0" font-family="none" font-weight="none" font-size="none" text-anchor="none" style="mix-blend-mode: normal" data-fill-palette-color="tertiary"></path></g><g transform="matrix(1,0,0,1,64,131.3661026223565)"><svg viewBox="0 0 192 97.26779475528703" height="97.26779475528703" width="192"><g><svg viewBox="0 0 192 97.26779475528703" height="97.26779475528703" width="192"><g><svg viewBox="0 0 192 97.26779475528703" height="97.26779475528703" width="192"><g transform="matrix(1,0,0,1,0,58.790453365558925)"><svg viewBox="0 0 192 38.4773413897281" height="38.4773413897281" width="192"><g id="textblocktransform"><svg viewBox="0 0 192 38.4773413897281" height="38.4773413897281" width="192" id="textblock"><g><svg viewBox="0 0 192 38.4773413897281" height="38.4773413897281" width="192"><g transform="matrix(1,0,0,1,0,0)"><svg width="192" viewBox="1.7999999523162842 -39.099998474121094 198.58999633789062 39.79999923706055" height="38.4773413897281" data-palette-color="#008000"><path d="M21.2-36.1L21.2-36.1Q24.7-36.1 26.95-35.15 29.2-34.2 30.9-32.85L30.9-32.85Q31.45-32.4 31.9-32.4L31.9-32.4Q32.85-32.4 33.15-35.4L33.15-35.4 34.3-35.4Q34.2-33.4 34.15-30.53 34.1-27.65 34.1-22.9L34.1-22.9 32.95-22.9Q32.6-26.5 31.73-28.93 30.85-31.35 28.35-33.05L28.35-33.05Q27.3-33.75 25.9-34.15 24.5-34.55 23.2-34.55L23.2-34.55Q20.3-34.55 18.4-32.98 16.5-31.4 15.38-28.88 14.25-26.35 13.78-23.38 13.3-20.4 13.3-17.6L13.3-17.6Q13.3-8.6 15.5-4.45 17.7-0.3 21.35-0.3L21.35-0.3Q22.15-0.3 22.75-0.45 23.35-0.6 23.8-0.9L23.8-0.9Q24.35-1.3 24.6-1.9 24.85-2.5 24.85-3.4L24.85-3.4 24.85-8.4Q24.85-10.85 24.48-12.05 24.1-13.25 23-13.7 21.9-14.15 19.8-14.2L19.8-14.2 19.8-15.2Q20.95-15.15 22.6-15.13 24.25-15.1 26.05-15.08 27.85-15.05 29.35-15.05L29.35-15.05Q31.75-15.05 33.77-15.1 35.8-15.15 37.05-15.2L37.05-15.2 37.05-14.2Q35.8-14.1 35.4-13.4 35-12.7 35-9.9L35-9.9 35 0 34 0Q33.95-0.85 33.6-1.85 33.25-2.85 32.45-2.85L32.45-2.85Q32.05-2.85 31.33-2.65 30.6-2.45 29.05-1.7L29.05-1.7Q27.1-0.75 24.93-0.03 22.75 0.7 20.6 0.7L20.6 0.7Q11.2 0.7 6.5-4.08 1.8-8.85 1.8-17.4L1.8-17.4Q1.8-23 4.28-27.2 6.75-31.4 11.13-33.75 15.5-36.1 21.2-36.1ZM52.2-26.65L52.2-26.65Q56.6-26.65 59.12-24.08 61.65-21.5 61.65-15.45L61.65-15.45 46-15.45 45.9-16.4 54.35-16.4Q54.4-18.85 54.15-20.93 53.9-23 53.35-24.25 52.8-25.5 51.85-25.5L51.85-25.5Q50.5-25.5 49.65-23.38 48.8-21.25 48.55-16.1L48.55-16.1 48.75-15.7Q48.7-15.2 48.7-14.7 48.7-14.2 48.7-13.65L48.7-13.65Q48.7-10.15 49.57-8.2 50.45-6.25 51.77-5.5 53.1-4.75 54.45-4.75L54.45-4.75Q55.45-4.75 57.15-5.28 58.85-5.8 60.5-8.1L60.5-8.1 61.35-7.8Q60.75-5.8 59.42-3.83 58.1-1.85 56-0.58 53.9 0.7 50.9 0.7L50.9 0.7Q47.7 0.7 45.07-0.6 42.45-1.9 40.9-4.9 39.35-7.9 39.35-12.95L39.35-12.95Q39.35-17.75 41.05-20.78 42.75-23.8 45.67-25.23 48.6-26.65 52.2-26.65ZM77.35-26.65L77.35-26.65Q81.25-26.65 84.12-25.33 87-24 88.6-21 90.2-18 90.2-12.95L90.2-12.95Q90.2-7.9 88.6-4.9 87-1.9 84.12-0.6 81.25 0.7 77.35 0.7L77.35 0.7Q73.5 0.7 70.6-0.6 67.7-1.9 66.1-4.9 64.5-7.9 64.5-12.95L64.5-12.95Q64.5-18 66.1-21 67.7-24 70.6-25.33 73.5-26.65 77.35-26.65ZM77.35-25.65L77.35-25.65Q75.85-25.65 74.85-22.65 73.85-19.65 73.85-12.95L73.85-12.95Q73.85-6.25 74.85-3.28 75.85-0.3 77.35-0.3L77.35-0.3Q78.85-0.3 79.85-3.28 80.85-6.25 80.85-12.95L80.85-12.95Q80.85-19.65 79.85-22.65 78.85-25.65 77.35-25.65ZM112.94-36.1L112.94-36.1Q116.44-36.1 118.69-35.15 120.94-34.2 122.64-32.85L122.64-32.85Q123.19-32.4 123.64-32.4L123.64-32.4Q124.59-32.4 124.89-35.4L124.89-35.4 126.04-35.4Q125.94-33.4 125.89-30.53 125.84-27.65 125.84-22.9L125.84-22.9 124.69-22.9Q124.34-26.5 123.47-28.93 122.59-31.35 120.09-33.05L120.09-33.05Q119.04-33.75 117.64-34.15 116.24-34.55 114.94-34.55L114.94-34.55Q112.04-34.55 110.14-32.98 108.24-31.4 107.12-28.88 105.99-26.35 105.52-23.38 105.04-20.4 105.04-17.6L105.04-17.6Q105.04-8.6 107.24-4.45 109.44-0.3 113.09-0.3L113.09-0.3Q113.89-0.3 114.49-0.45 115.09-0.6 115.54-0.9L115.54-0.9Q116.09-1.3 116.34-1.9 116.59-2.5 116.59-3.4L116.59-3.4 116.59-8.4Q116.59-10.85 116.22-12.05 115.84-13.25 114.74-13.7 113.64-14.15 111.54-14.2L111.54-14.2 111.54-15.2Q112.69-15.15 114.34-15.13 115.99-15.1 117.79-15.08 119.59-15.05 121.09-15.05L121.09-15.05Q123.49-15.05 125.52-15.1 127.54-15.15 128.79-15.2L128.79-15.2 128.79-14.2Q127.54-14.1 127.14-13.4 126.74-12.7 126.74-9.9L126.74-9.9 126.74 0 125.74 0Q125.69-0.85 125.34-1.85 124.99-2.85 124.19-2.85L124.19-2.85Q123.79-2.85 123.07-2.65 122.34-2.45 120.79-1.7L120.79-1.7Q118.84-0.75 116.67-0.03 114.49 0.7 112.34 0.7L112.34 0.7Q102.94 0.7 98.24-4.08 93.54-8.85 93.54-17.4L93.54-17.4Q93.54-23 96.02-27.2 98.49-31.4 102.87-33.75 107.24-36.1 112.94-36.1ZM143.94-26.65L143.94-26.65Q147.84-26.65 150.72-25.33 153.59-24 155.19-21 156.79-18 156.79-12.95L156.79-12.95Q156.79-7.9 155.19-4.9 153.59-1.9 150.72-0.6 147.84 0.7 143.94 0.7L143.94 0.7Q140.09 0.7 137.19-0.6 134.29-1.9 132.69-4.9 131.09-7.9 131.09-12.95L131.09-12.95Q131.09-18 132.69-21 134.29-24 137.19-25.33 140.09-26.65 143.94-26.65ZM143.94-25.65L143.94-25.65Q142.44-25.65 141.44-22.65 140.44-19.65 140.44-12.95L140.44-12.95Q140.44-6.25 141.44-3.28 142.44-0.3 143.94-0.3L143.94-0.3Q145.44-0.3 146.44-3.28 147.44-6.25 147.44-12.95L147.44-12.95Q147.44-19.65 146.44-22.65 145.44-25.65 143.94-25.65ZM165.89 0.35L165.89 0.35Q162.49 0.35 160.96-1.48 159.44-3.3 159.44-5.7L159.44-5.7Q159.44-7.85 160.39-9.2 161.34-10.55 162.86-11.4 164.39-12.25 166.09-12.83 167.79-13.4 169.31-13.95 170.84-14.5 171.79-15.23 172.74-15.95 172.74-17.1L172.74-17.1 172.74-21.55Q172.74-22.35 172.46-23.3 172.19-24.25 171.44-24.95 170.69-25.65 169.19-25.65L169.19-25.65Q168.39-25.65 167.66-25.43 166.94-25.2 166.39-24.8L166.39-24.8Q168.14-24.15 168.94-22.98 169.74-21.8 169.74-20.4L169.74-20.4Q169.74-18.4 168.34-17.25 166.94-16.1 165.04-16.1L165.04-16.1Q163.04-16.1 161.94-17.35 160.84-18.6 160.84-20.45L160.84-20.45Q160.84-22 161.61-23.08 162.39-24.15 163.94-25.05L163.94-25.05Q165.44-25.9 167.54-26.28 169.64-26.65 171.94-26.65L171.94-26.65Q174.39-26.65 176.49-26.18 178.59-25.7 180.09-24.15L180.09-24.15Q181.14-23.05 181.44-21.4 181.74-19.75 181.74-17.15L181.74-17.15 181.74-3.75Q181.74-2.5 181.91-2.05 182.09-1.6 182.54-1.6L182.54-1.6Q182.94-1.6 183.31-1.85 183.69-2.1 184.04-2.35L184.04-2.35 184.54-1.5Q183.44-0.55 181.81-0.1 180.19 0.35 178.39 0.35L178.39 0.35Q175.14 0.35 174.06-0.8 172.99-1.95 172.89-3.45L172.89-3.45Q171.89-1.8 170.19-0.73 168.49 0.35 165.89 0.35ZM170.89-3.65L170.89-3.65Q171.44-3.65 171.86-3.83 172.29-4 172.74-4.5L172.74-4.5 172.74-15.05Q172.24-14.15 171.49-13.48 170.74-12.8 170.01-12.03 169.29-11.25 168.81-10.13 168.34-9 168.34-7.25L168.34-7.25Q168.34-5.25 169.06-4.45 169.79-3.65 170.89-3.65ZM197.59-39.1L197.59-39.1 197.59-4.65Q197.59-2.55 198.21-1.8 198.84-1.05 200.39-1.05L200.39-1.05 200.39 0Q199.39-0.05 197.39-0.13 195.39-0.2 193.29-0.2L193.29-0.2Q191.19-0.2 189.04-0.13 186.89-0.05 185.79 0L185.79 0 185.79-1.05Q187.34-1.05 187.96-1.8 188.59-2.55 188.59-4.65L188.59-4.65 188.59-33.1Q188.59-35.35 187.99-36.43 187.39-37.5 185.79-37.5L185.79-37.5 185.79-38.55Q187.39-38.4 188.89-38.4L188.89-38.4Q191.39-38.4 193.56-38.58 195.74-38.75 197.59-39.1Z" opacity="1" transform="matrix(1,0,0,1,0,0)" fill="#ffffff" class="wordmark-text-0" data-fill-palette-color="primary" id="text-0"></path></svg></g></svg></g></svg></g></svg></g><g transform="matrix(1,0,0,1,53.477493869105245,0)"><svg viewBox="0 0 85.04501226178951 53.17568580060424" height="53.17568580060424" width="85.04501226178951"><g><svg xmlns="http://www.w3.org/2000/svg" xmlns:xlink="http://www.w3.org/1999/xlink" version="1.1" x="0" y="0" viewBox="0 18.942001342773438 99.34100341796875 62.114471435546875" enable-background="new 0 0 100 100" xml:space="preserve" height="53.17568580060424" width="85.04501226178951" class="icon-icon-0" data-fill-palette-color="accent" id="icon-0"><g fill="#008000" data-fill-palette-color="accent"><path fill="#ffffff" d="M31.441 32.482c0 0-3.756 2.687-1.637 6.296 2.124 3.609 5.703 6.142 8.113 4.726 2.409-1.416 1.749-6.095-0.183-9.387C35.8 30.828 32.408 31.914 31.441 32.482z" data-fill-palette-color="accent"></path><circle fill="#ffffff" cx="6.518" cy="25.46" r="6.5" data-fill-palette-color="accent"></circle><path fill="#ffffff" d="M41.678 40.581l9.791-4.511 8.852-7.877c0 0 1.876-1.499 3.523 0 1.649 1.497 0 3.524 0 3.524l-8.696 7.436-7.791 5.702c0 0 0.462 1.454 2.793 0.604 0 0 1.814 1.54 2.31 1.925 0.495 0.386 8.799 6.436 8.799 6.436l18.426 4.26 16.789 0.943c0 0 2.867 0.108 2.867 3.182 0 3.071-3.377 2.601-3.377 2.601L79.354 63.86l-12.598-1.946c0 0-1.374-0.105-2.748 0.831 0 0 3.52-0.63 5.28 1.115 1.758 1.744 5.994 7.088 5.994 7.088l17.022 4.759c0 0 1.908 1.121 0.967 3.677-0.94 2.557-3.603 1.421-3.603 1.421l-17.852-4.075L54.877 63.996c0 0-12.705-4.62-20.562-11.551-1.376-4.537 0.187-6.351 0.187-6.351s2.928 0.728 5.148-0.563C41.87 44.237 41.678 40.581 41.678 40.581z" data-fill-palette-color="accent"></path><path fill="#ffffff" d="M31.661 45.211c0 0-1.556 2.14-0.162 6.335l-10.578-7.033-9.021-9.552c0 0-0.518-1.632 0.91-2.801 1.429-1.169 2.8-0.067 3.282 0.331 0.483 0.397 7.248 7.492 7.248 7.492L31.661 45.211z" data-fill-palette-color="accent"></path></g></svg></g></svg></g><g></g></svg></g></svg></g></svg></g></svg></g><defs></defs></svg><rect width="320" height="360" fill="none" stroke="none" visibility="hidden"></rect></g></svg></g></svg>